PathFileType	4	(X/Y/Z)	C:\Users\86182\Documents\cortex\Trimmed_M3_H8.trc
DataRate	CameraRate	NumFrames	NumMarkers	Units	OrigDataRate	OrigDataStartFrame	OrigNumFrames
100.00	100.00	       140	2	mm	100.00	541	       901
Frame#	Time	gripper			box			
		X1	Y1	Z1	X2	Y2	Z2	

541	5.400	267.71484	173.07816	292.00299	267.53296	170.71455	155.64140	
542	5.410	267.67889	173.08165	292.02533	267.53296	170.71434	155.64166	
543	5.420	267.64908	173.08394	292.04166	267.53299	170.71414	155.64191	
544	5.430	267.63150	173.08511	292.05038	267.53302	170.71397	155.64211	
545	5.440	267.62936	173.08525	292.05090	267.53302	170.71385	155.64224	
546	5.450	267.64252	173.08423	292.04370	267.53302	170.71378	155.64232	
547	5.460	267.66754	173.08179	292.03015	267.53305	170.71373	155.64235	
548	5.470	267.69888	173.07791	292.01260	267.53305	170.71373	155.64235	
549	5.480	267.73117	173.07309	291.99371	267.53305	170.71373	155.64232	
550	5.490	267.76062	173.06825	291.97580	267.53308	170.71375	155.64227	
551	5.500	267.78479	173.06436	291.96051	267.53308	170.71376	155.64223	
552	5.510	267.80112	173.06210	291.94916	267.53311	170.71378	155.64218	
553	5.520	267.80640	173.06166	291.94281	267.53314	170.71378	155.64217	
554	5.530	267.79807	173.06288	291.94244	267.53314	170.71375	155.64223	
555	5.540	267.77573	173.06537	291.94894	267.53308	170.71364	155.64244	
556	5.550	267.74210	173.06873	291.96249	267.53293	170.71341	155.64297	
557	5.560	267.70279	173.07253	291.98187	267.53265	170.71303	155.64391	
558	5.570	267.66510	173.07634	292.00415	267.53223	170.71248	155.64532	
559	5.580	267.63602	173.07977	292.02502	267.53162	170.71176	155.64717	
560	5.590	267.61993	173.08247	292.04047	267.53091	170.71100	155.64929	
561	5.600	267.61829	173.08409	292.04773	267.53015	170.71036	155.65129	
562	5.610	267.62982	173.08429	292.04584	267.52954	170.71004	155.65265	
563	5.620	267.65192	173.08286	292.03488	267.52917	170.71017	155.65302	
564	5.630	267.68137	173.07994	292.01602	267.52921	170.71078	155.65216	
565	5.640	267.71432	173.07614	291.99167	267.52963	170.71167	155.65025	
566	5.650	267.74591	173.07217	291.96548	267.53058	170.71246	155.64771	
567	5.660	267.77103	173.06866	291.94189	267.53204	170.71274	155.64500	
568	5.670	267.78561	173.06586	291.92514	267.53427	170.71208	155.64243	
569	5.680	267.78754	173.06390	291.91840	267.53741	170.71017	155.64011	
570	5.690	267.77707	173.06297	291.92297	267.54153	170.70699	155.63809	
571	5.700	267.75650	173.06323	291.93817	267.54626	170.70277	155.63652	
572	5.710	267.72952	173.06482	291.96136	267.55087	170.69835	155.63548	
573	5.720	267.70035	173.06773	291.98816	267.55429	170.69484	155.63504	
574	5.730	267.67322	173.07169	292.01364	267.55576	170.69316	155.63513	
575	5.740	267.65186	173.07597	292.03339	267.55502	170.69370	155.63556	
576	5.750	267.63901	173.07974	292.04449	267.55240	170.69630	155.63600	
577	5.760	267.63654	173.08235	292.04553	267.54819	170.70085	155.63614	
578	5.770	267.64520	173.08357	292.03650	267.54251	170.70734	155.63580	
579	5.780	267.66428	173.08347	292.01904	267.53549	170.71562	155.63492	
580	5.790	267.69067	173.08232	291.99622	267.52783	170.72501	155.63348	
581	5.800	267.71918	173.08060	291.97272	267.52078	170.73392	155.63162	
582	5.810	267.74384	173.07890	291.95361	267.51599	170.74043	155.62975	
583	5.820	267.75980	173.07762	291.94308	267.51474	170.74278	155.62830	
584	5.830	267.76480	173.07692	291.94312	267.51755	170.74013	155.62761	
585	5.840	267.75925	173.07672	291.95316	267.52414	170.73277	155.62776	
586	5.850	267.74527	173.07693	291.97052	267.53323	170.72220	155.62860	
587	5.860	267.72604	173.07741	291.99115	267.54318	170.71046	155.62973	
588	5.870	267.70554	173.07788	292.01105	267.55264	170.69934	155.63075	
589	5.880	267.68750	173.07800	292.02716	267.56076	170.68991	155.63145	
590	5.890	267.67474	173.07764	292.03784	267.56714	170.68265	155.63181	
591	5.900	267.66925	173.07674	292.04230	267.57169	170.67758	155.63181	
592	5.910	267.67252	173.07547	292.04044	267.57458	170.67458	155.63148	
593	5.920	267.68542	173.07411	292.03253	267.57593	170.67349	155.63089	
594	5.930	267.70700	173.07294	292.01978	267.57565	170.67433	155.62999	
595	5.940	267.73373	173.07211	292.00415	267.57382	170.67714	155.62877	
596	5.950	267.76007	173.07167	291.98810	267.57050	170.68185	155.62718	
597	5.960	267.78040	173.07162	291.97418	267.56583	170.68825	155.62526	
598	5.970	267.79068	173.07210	291.96466	267.56027	170.69582	155.62308	
599	5.980	267.78900	173.07336	291.96118	267.55435	170.70384	155.62082	
600	5.990	267.77557	173.07558	291.96429	267.54858	170.71156	155.61867	
601	6.000	267.75272	173.07861	291.97354	267.54358	170.71825	155.61674	
602	6.010	267.72385	173.08203	291.98764	267.53992	170.72316	155.61493	
603	6.020	267.69299	173.08510	292.00482	267.53799	170.72600	155.61295	
604	6.030	267.66464	173.08705	292.02267	267.53748	170.72714	155.61055	
605	6.040	267.64316	173.08748	292.03830	267.53754	170.72752	155.60765	
606	6.050	267.63229	173.08646	292.04880	267.53726	170.72818	155.60422	
607	6.060	267.63467	173.08437	292.05200	267.53607	170.72980	155.60036	
608	6.070	267.65118	173.08165	292.04691	267.53387	170.73268	155.59631	
609	6.080	267.67987	173.07869	292.03394	267.53082	170.73677	155.59235	
610	6.090	267.71594	173.07576	292.01495	267.52731	170.74170	155.58864	
611	6.100	267.75247	173.07303	291.99310	267.52383	170.74664	155.58539	
612	6.110	267.78308	173.07065	291.97168	267.52103	170.75056	155.58289	
613	6.120	267.80377	173.06892	291.95392	267.51965	170.75250	155.58157	
614	6.130	267.81299	173.06831	291.94235	267.52039	170.75168	155.58192	
615	6.140	267.81097	173.06927	291.93896	267.52377	170.74763	155.58421	
616	6.150	267.79861	173.07185	291.94449	267.52979	170.74049	155.58835	
617	6.160	267.77734	173.07558	291.95813	267.53781	170.73094	155.59387	
618	6.170	267.74945	173.07971	291.97751	267.54669	170.72020	155.59996	
619	6.180	267.71848	173.08344	291.99908	267.55493	170.70998	155.60567	
620	6.190	267.68912	173.08609	292.01904	267.56097	170.70206	155.61005	
621	6.200	267.66638	173.08755	292.03397	267.56357	170.69806	155.61232	
622	6.210	267.65439	173.08812	292.04141	267.56189	170.69901	155.61195	
623	6.220	267.65521	173.08812	292.04022	267.55594	170.70500	155.60875	
624	6.230	267.66821	173.08751	292.03088	267.54651	170.71503	155.60292	
625	6.240	267.69028	173.08604	292.01538	267.53513	170.72728	155.59515	
626	6.250	267.71722	173.08354	291.99655	267.52371	170.73959	155.58661	
627	6.260	267.74512	173.08029	291.97772	267.51413	170.75005	155.57887	
628	6.270	267.77042	173.07689	291.96225	267.50784	170.75725	155.57338	
629	6.280	267.78992	173.07404	291.95270	267.50571	170.76035	155.57100	
630	6.290	267.80063	173.07216	291.95041	267.50793	170.75890	155.57199	
631	6.300	267.80057	173.07140	291.95551	267.51425	170.75294	155.57616	
632	6.310	267.78934	173.07159	291.96686	267.52386	170.74304	155.58281	
633	6.320	267.76837	173.07253	291.98267	267.53540	170.73042	155.59082	
634	6.330	267.74146	173.07399	292.00037	267.54715	170.71689	155.59894	
635	6.340	267.71429	173.07585	292.01694	267.55731	170.70468	155.60593	
636	6.350	267.69284	173.07791	292.02942	267.56436	170.69591	155.61089	
637	6.360	267.68127	173.08000	292.03592	267.56744	170.69185	155.61336	
638	6.370	267.68063	173.08203	292.03607	267.56656	170.69263	155.61346	
639	6.380	267.68936	173.08388	292.03085	267.56262	170.69736	155.61177	
640	6.390	267.70474	173.08549	292.02197	267.55692	170.70448	155.60905	
641	6.400	267.72403	173.08687	292.01138	267.55106	170.71230	155.60620	
642	6.410	267.74445	173.08806	292.00092	267.54611	170.71947	155.60376	
643	6.420	267.76279	173.08913	291.99219	267.54233	170.72554	155.60181	
644	6.430	267.77567	173.08992	291.98627	267.53952	170.73047	155.60027	
645	6.440	267.78070	173.09009	291.98401	267.53799	170.73358	155.59929	
646	6.450	267.77734	173.08942	291.98569	267.53851	170.73378	155.59927	
647	6.460	267.76675	173.08810	291.99133	267.54138	170.73051	155.60048	
648	6.470	267.75113	173.08669	292.00043	267.54614	170.72429	155.60280	
649	6.480	267.73352	173.08549	292.01154	267.55173	170.71655	155.60574	
650	6.490	267.71747	173.08453	292.02237	267.55688	170.70912	155.60858	
651	6.500	267.70605	173.08369	292.03076	267.56097	170.70305	155.61084	
652	6.510	267.70145	173.08275	292.03497	267.56384	170.69859	155.61235	
653	6.520	267.70480	173.08142	292.03412	267.56528	170.69611	155.61296	
654	6.530	267.71625	173.07956	292.02826	267.56445	170.69662	155.61223	
655	6.540	267.73459	173.07727	292.01840	267.56064	170.70120	155.60973	
656	6.550	267.75711	173.07483	292.00620	267.55392	170.70972	155.60547	
657	6.560	267.78052	173.07257	291.99335	267.54544	170.72064	155.60005	
658	6.570	267.80145	173.07083	291.98151	267.53680	170.73195	155.59433	
659	6.580	267.81671	173.06990	291.97235	267.52927	170.74197	155.58910	
660	6.590	267.82376	173.06992	291.96756	267.52344	170.74976	155.58492	
661	6.600	267.82144	173.07080	291.96823	267.51971	170.75475	155.58218	
662	6.610	267.80988	173.07234	291.97467	267.51834	170.75671	155.58122	
663	6.620	267.79044	173.07437	291.98584	267.51932	170.75583	155.58206	
664	6.630	267.76596	173.07669	291.99982	267.52213	170.75259	155.58427	
665	6.640	267.74023	173.07910	292.01416	267.52597	170.74779	155.58719	
666	6.650	267.71756	173.08107	292.02655	267.52991	170.74234	155.59004	
667	6.660	267.70160	173.08195	292.03506	267.53314	170.73717	155.59221	
668	6.670	267.69482	173.08142	292.03854	267.53531	170.73271	155.59341	
669	6.680	267.69833	173.07964	292.03650	267.53641	170.72931	155.59369	
670	6.690	267.71216	173.07697	292.02924	267.53625	170.72769	155.59308	
671	6.700	267.73456	173.07388	292.01788	267.53464	170.72867	155.59164	
672	6.710	267.76172	173.07097	292.00452	267.53192	170.73210	155.58975	
673	6.720	267.78873	173.06873	291.99164	267.52899	170.73674	155.58789	
674	6.730	267.81085	173.06741	291.98120	267.52652	170.74120	155.58640	
675	6.740	267.82443	173.06717	291.97473	267.52478	170.74463	155.58534	
676	6.750	267.82748	173.06804	291.97305	267.52399	170.74667	155.58488	
677	6.760	267.81989	173.06995	291.97650	267.52429	170.74722	155.58521	
678	6.770	267.80292	173.07275	291.98450	267.52567	170.74635	155.58632	
679	6.780	267.77881	173.07635	291.99597	267.52780	170.74422	155.58806	
680	6.790	267.75073	173.08049	292.00912	267.53036	170.74104	155.59012	
